<?xml version="1.0" encoding="UTF-8"?>
<!DOCTYPE svg PUBLIC "-//W3C//DTD SVG 1.1//EN" "http://www.w3.org/Graphics/SVG/1.1/DTD/svg11.dtd">
<svg xmlns="http://www.w3.org/2000/svg" version="1.1" width="719px" height="719px" style="shape-rendering:geometricPrecision; text-rendering:geometricPrecision; image-rendering:optimizeQuality; fill-rule:evenodd; clip-rule:evenodd" xmlns:xlink="http://www.w3.org/1999/xlink">
<g><path style="opacity:0.997" fill="#fdfdfd" d="M 332.5,-0.5 C 350.167,-0.5 367.833,-0.5 385.5,-0.5C 508.881,12.4036 603.381,71.0703 669,175.5C 697.298,224.223 713.798,276.556 718.5,332.5C 718.5,350.167 718.5,367.833 718.5,385.5C 706.177,506.715 649.177,600.215 547.5,666C 459.524,717.902 365.857,731.568 266.5,707C 157.235,675.391 78.4016,608.224 30,505.5C 13.2237,467.06 3.05706,427.06 -0.5,385.5C -0.5,367.833 -0.5,350.167 -0.5,332.5C 12.4036,209.119 71.0703,114.619 175.5,49C 224.223,20.7016 276.556,4.20163 332.5,-0.5 Z"/></g>
<g><path style="opacity:1" fill="#9fbcb2" d="M 71.5,316.5 C 74.4951,316.294 77.1617,316.96 79.5,318.5C 76.5049,318.706 73.8383,318.04 71.5,316.5 Z"/></g>
<g><path style="opacity:1" fill="#c0d7d2" d="M 79.5,318.5 C 82.1667,318.5 84.8333,318.5 87.5,318.5C 87.5,319.5 87.5,320.5 87.5,321.5C 85.901,321.768 84.5676,321.434 83.5,320.5C 82.1667,319.833 80.8333,319.167 79.5,318.5 Z"/></g>
<g><path style="opacity:1" fill="#e6efed" d="M 71.5,316.5 C 66.8215,316.334 62.1548,316.501 57.5,317C 63.0376,319.206 68.3709,321.706 73.5,324.5C 74.8021,326.822 76.8021,328.155 79.5,328.5C 79.5,329.167 79.5,329.833 79.5,330.5C 76.5879,329.185 73.5879,328.018 70.5,327C 69.6634,325.989 69.33,324.822 69.5,323.5C 66.0668,323.6 62.5668,323.6 59,323.5C 58.0347,325.26 56.868,325.594 55.5,324.5C 56.1667,323.833 56.8333,323.167 57.5,322.5C 56.1487,320.981 54.6487,319.648 53,318.5C 52.51,317.207 52.3433,315.873 52.5,314.5C 59.0616,314.337 65.395,315.004 71.5,316.5 Z"/></g>
<g><path style="opacity:1" fill="#294c41" d="M 71.5,316.5 C 73.8383,318.04 76.5049,318.706 79.5,318.5C 80.8333,319.167 82.1667,319.833 83.5,320.5C 79.1813,319.751 74.848,319.585 70.5,320C 71.6226,321.044 72.9559,321.71 74.5,322C 73.7476,322.671 73.4142,323.504 73.5,324.5C 68.3709,321.706 63.0376,319.206 57.5,317C 62.1548,316.501 66.8215,316.334 71.5,316.5 Z"/></g>
<g><path style="opacity:1" fill="#dfeee7" d="M 367.5,323.5 C 359.493,323.334 351.493,323.5 343.5,324C 339.026,325.408 334.693,327.075 330.5,329C 328.937,329.759 327.937,330.926 327.5,332.5C 326.833,332.5 326.167,332.5 325.5,332.5C 324.323,330.897 324.489,329.564 326,328.5C 326.414,328.957 326.914,329.291 327.5,329.5C 331.281,326.742 335.115,324.076 339,321.5C 348.182,319.977 357.682,318.977 367.5,318.5C 367.5,320.167 367.5,321.833 367.5,323.5 Z"/></g>
<g><path style="opacity:1" fill="#708c87" d="M 155.5,323.5 C 161.979,322.509 168.646,322.176 175.5,322.5C 175.771,324.38 175.104,325.713 173.5,326.5C 173.5,325.5 173.5,324.5 173.5,323.5C 167.5,323.5 161.5,323.5 155.5,323.5 Z"/></g>
<g><path style="opacity:1" fill="#799088" d="M 271.5,323.5 C 274.495,323.294 277.162,323.96 279.5,325.5C 276.505,325.706 273.838,325.04 271.5,323.5 Z"/></g>
<g><path style="opacity:1" fill="#8ca29f" d="M 367.5,323.5 C 370.649,323.415 373.316,324.415 375.5,326.5C 372.458,326.267 369.792,325.267 367.5,323.5 Z"/></g>
<g><path style="opacity:1" fill="#9fb4b1" d="M 495.5,324.5 C 499.748,324.624 503.082,326.29 505.5,329.5C 501.849,328.341 498.515,326.674 495.5,324.5 Z"/></g>
<g><path style="opacity:1" fill="#99aea7" d="M 191.5,323.5 C 190.54,325.461 189.207,327.127 187.5,328.5C 187.67,325.796 189.003,324.129 191.5,323.5 Z"/></g>
<g><path style="opacity:1" fill="#4c6b64" d="M 581.5,323.5 C 581.5,329.833 581.5,336.167 581.5,342.5C 577.5,342.5 573.5,342.5 569.5,342.5C 572.962,341.518 576.629,341.185 580.5,341.5C 580.5,335.833 580.5,330.167 580.5,324.5C 575.346,324.294 570.346,324.961 565.5,326.5C 570.384,322.739 575.717,321.739 581.5,323.5 Z"/></g>
<g><path style="opacity:1" fill="#0a4332" d="M 392.5,341.5 C 393.167,341.833 393.833,342.167 394.5,342.5C 395.697,346.095 396.697,349.761 397.5,353.5C 390.833,353.5 384.167,353.5 377.5,353.5C 377.771,351.62 377.104,350.287 375.5,349.5C 374.833,348.167 374.167,346.833 373.5,345.5C 372.766,344.292 372.433,342.959 372.5,341.5C 371.448,341.649 370.448,341.483 369.5,341C 368.167,340.333 368.167,339.667 369.5,339C 363.621,337.59 357.621,337.09 351.5,337.5C 351.261,335.533 351.594,333.699 352.5,332C 357.489,331.501 362.489,331.334 367.5,331.5C 367.5,330.167 367.5,328.833 367.5,327.5C 372.347,327.246 375.347,329.413 376.5,334C 378.804,334.895 381.138,335.729 383.5,336.5C 383.727,338.671 384.06,340.838 384.5,343C 385.167,343.667 385.833,343.667 386.5,343C 385.549,342.282 385.383,341.449 386,340.5C 388.144,342.075 390.311,342.408 392.5,341.5 Z"/></g>
<g><path style="opacity:1" fill="#b9d1cb" d="M 375.5,326.5 C 378.807,327.051 382.14,327.384 385.5,327.5C 385.343,328.873 385.51,330.207 386,331.5C 388.127,333.114 389.627,335.114 390.5,337.5C 388.037,335.539 385.703,333.372 383.5,331C 380.609,329.726 377.942,328.226 375.5,326.5 Z"/></g>
<g><path style="opacity:1" fill="#0e4138" d="M 495.5,324.5 C 498.515,326.674 501.849,328.341 505.5,329.5C 510.393,332.455 514.727,336.122 518.5,340.5C 519.242,342.98 520.242,345.313 521.5,347.5C 518.183,346.918 515.183,345.585 512.5,343.5C 510.44,340.548 508.774,337.381 507.5,334C 505.892,333.342 504.725,333.842 504,335.5C 501.931,334.736 499.764,334.236 497.5,334C 498.5,333.167 499.5,332.333 500.5,331.5C 500,331.167 499.5,330.833 499,330.5C 497.829,331.34 496.662,332.173 495.5,333C 495.833,333.333 496.167,333.667 496.5,334C 490.843,334.499 485.176,334.666 479.5,334.5C 479.167,331.833 478.833,329.167 478.5,326.5C 473.53,327.353 468.53,328.02 463.5,328.5C 463.5,330.833 463.5,333.167 463.5,335.5C 462.5,335.5 461.5,335.5 460.5,335.5C 460.67,336.822 460.337,337.989 459.5,339C 456.666,339.045 454.166,339.879 452,341.5C 450.578,341.406 449.078,341.072 447.5,340.5C 450.168,339.485 450.834,337.818 449.5,335.5C 448.735,336.612 447.735,337.279 446.5,337.5C 446.856,335.81 447.856,334.81 449.5,334.5C 453.08,331.98 456.746,329.647 460.5,327.5C 462.832,325.904 465.499,324.738 468.5,324C 477.676,323.176 486.676,323.343 495.5,324.5 Z"/></g>
<g><path style="opacity:1" fill="#044032" d="M 641.5,325.5 C 644.221,325.963 646.888,326.629 649.5,327.5C 651.5,329.167 653.5,330.833 655.5,332.5C 657.001,338.096 660.335,342.263 665.5,345C 664.978,345.561 664.645,346.228 664.5,347C 667.729,351.578 668.729,356.578 667.5,362C 668.911,364.663 669.911,367.496 670.5,370.5C 660.494,370.666 650.494,370.5 640.5,370C 639.949,368.602 639.616,367.268 639.5,366C 637,365.833 634.5,365.667 632,365.5C 624.157,366.299 616.324,366.799 608.5,367C 608.043,366.586 607.709,366.086 607.5,365.5C 620.821,364.334 634.154,364.167 647.5,365C 649.101,365.273 650.601,365.773 652,366.5C 654.19,364.217 654.857,361.551 654,358.5C 653.79,360.058 653.29,361.391 652.5,362.5C 652.768,360.901 652.434,359.568 651.5,358.5C 651.5,357.833 651.5,357.167 651.5,356.5C 651.741,354.102 651.074,352.102 649.5,350.5C 649.067,347.834 648.567,345.168 648,342.5C 647.667,342.833 647.333,343.167 647,343.5C 646.206,340.169 644.039,338.336 640.5,338C 632.152,337.706 623.818,337.206 615.5,336.5C 612.406,336.65 609.74,337.65 607.5,339.5C 607.5,338.167 607.5,336.833 607.5,335.5C 604.603,335.875 601.937,335.375 599.5,334C 602.629,332.601 605.629,330.935 608.5,329C 613.331,326.938 618.331,326.271 623.5,327C 624.337,328.011 624.67,329.178 624.5,330.5C 629.214,330.827 633.88,330.493 638.5,329.5C 638.815,327.517 639.815,326.184 641.5,325.5 Z"/></g>
<g><path style="opacity:1" fill="#034032" d="M 300.5,414.5 C 300.5,415.5 300.5,416.5 300.5,417.5C 296.167,417.5 291.833,417.5 287.5,417.5C 286.225,408.995 285.558,400.328 285.5,391.5C 286.071,377.801 286.071,364.135 285.5,350.5C 286.833,350.5 288.167,350.5 289.5,350.5C 289.724,346.485 288.557,345.819 286,348.5C 283.501,347.917 281.501,346.584 280,344.5C 279.304,341.391 278.138,338.558 276.5,336C 275.128,335.598 273.795,335.098 272.5,334.5C 269.852,336.019 267.018,337.019 264,337.5C 257.969,335.828 251.803,334.661 245.5,334C 249.282,332.046 252.615,329.546 255.5,326.5C 258.167,326.167 260.833,325.833 263.5,325.5C 268.935,325.539 274.268,326.205 279.5,327.5C 280.252,331.433 282.419,334.433 286,336.5C 287.025,332.899 288.525,332.899 290.5,336.5C 289.237,342.57 291.57,344.904 297.5,343.5C 296.74,347.051 296.906,350.718 298,354.5C 297.843,374.858 298.676,394.858 300.5,414.5 Z"/></g>
<g><path style="opacity:1" fill="#daeae6" d="M 87.5,321.5 C 90.6092,321.655 93.6092,322.322 96.5,323.5C 97.4229,325.924 98.9229,327.924 101,329.5C 101.333,328.5 101.667,327.5 102,326.5C 106.388,329.682 108.221,334.015 107.5,339.5C 102.375,331.704 95.708,325.704 87.5,321.5 Z"/></g>
<g><path style="opacity:1" fill="#7c9c95" d="M 535.5,323.5 C 541.645,322.51 547.978,322.177 554.5,322.5C 554.182,327.032 554.515,331.366 555.5,335.5C 555.44,336.043 555.107,336.376 554.5,336.5C 553.508,332.217 553.174,327.884 553.5,323.5C 547.5,323.5 541.5,323.5 535.5,323.5 Z"/></g>
<g><path style="opacity:1" fill="#cadedc" d="M 205.5,327.5 C 206.117,327.611 206.617,327.944 207,328.5C 207.667,331.833 207.667,335.167 207,338.5C 205.53,339.267 204.03,339.933 202.5,340.5C 205.037,336.6 206.037,332.266 205.5,327.5 Z"/></g>
<g><path style="opacity:1" fill="#55716f" d="M 460.5,327.5 C 456.746,329.647 453.08,331.98 449.5,334.5C 452.005,330.41 455.672,328.077 460.5,327.5 Z"/></g>
<g><path style="opacity:1" fill="#5b7a72" d="M 599.5,331.5 C 597.167,334.5 594.5,337.167 591.5,339.5C 593.167,335.833 595.833,333.167 599.5,331.5 Z"/></g>
<g><path style="opacity:1" fill="#084032" d="M 521.5,347.5 C 523.124,350.931 524.124,354.598 524.5,358.5C 524.5,364.5 524.5,370.5 524.5,376.5C 522.833,376.5 521.167,376.5 519.5,376.5C 517.22,374.777 514.553,374.111 511.5,374.5C 511.5,373.167 511.5,371.833 511.5,370.5C 506.489,370.666 501.489,370.499 496.5,370C 495.949,368.602 495.616,367.268 495.5,366C 482.154,365.833 468.821,365.333 455.5,364.5C 472.328,363.833 488.995,363.167 505.5,362.5C 506.622,360.712 506.789,358.712 506,356.5C 505.8,354.68 504.966,353.347 503.5,352.5C 501.137,348.623 498.137,345.123 494.5,342C 485.961,339.341 477.294,338.841 468.5,340.5C 466.97,339.933 465.47,339.267 464,338.5C 459.615,344.326 455.449,350.326 451.5,356.5C 447.278,353.577 447.611,351.411 452.5,350C 450.326,344.682 448.326,344.515 446.5,349.5C 441.96,351.11 440.96,350.11 443.5,346.5C 443.03,345.537 442.363,345.537 441.5,346.5C 441.833,345.167 442.167,343.833 442.5,342.5C 444.587,341.415 445.92,339.749 446.5,337.5C 447.735,337.279 448.735,336.612 449.5,335.5C 450.834,337.818 450.168,339.485 447.5,340.5C 449.078,341.072 450.578,341.406 452,341.5C 454.166,339.879 456.666,339.045 459.5,339C 460.337,337.989 460.67,336.822 460.5,335.5C 461.5,335.5 462.5,335.5 463.5,335.5C 463.5,333.167 463.5,330.833 463.5,328.5C 468.53,328.02 473.53,327.353 478.5,326.5C 478.833,329.167 479.167,331.833 479.5,334.5C 485.176,334.666 490.843,334.499 496.5,334C 496.167,333.667 495.833,333.333 495.5,333C 496.662,332.173 497.829,331.34 499,330.5C 499.5,330.833 500,331.167 500.5,331.5C 499.5,332.333 498.5,333.167 497.5,334C 499.764,334.236 501.931,334.736 504,335.5C 504.725,333.842 505.892,333.342 507.5,334C 508.774,337.381 510.44,340.548 512.5,343.5C 515.183,345.585 518.183,346.918 521.5,347.5 Z"/></g>
<g><path style="opacity:1" fill="#104033" d="M 191.5,323.5 C 196.915,322.604 201.582,323.937 205.5,327.5C 206.037,332.266 205.037,336.6 202.5,340.5C 202.167,340.5 201.833,340.5 201.5,340.5C 191.888,343.227 187.221,339.56 187.5,329.5C 187.5,329.167 187.5,328.833 187.5,328.5C 189.207,327.127 190.54,325.461 191.5,323.5 Z"/></g>
<g><path style="opacity:1" fill="#0a3d32" d="M 271.5,323.5 C 273.838,325.04 276.505,325.706 279.5,325.5C 290.461,330.464 297.461,338.797 300.5,350.5C 300.5,371.833 300.5,393.167 300.5,414.5C 298.676,394.858 297.843,374.858 298,354.5C 296.906,350.718 296.74,347.051 297.5,343.5C 291.57,344.904 289.237,342.57 290.5,336.5C 288.525,332.899 287.025,332.899 286,336.5C 282.419,334.433 280.252,331.433 279.5,327.5C 274.268,326.205 268.935,325.539 263.5,325.5C 260.833,325.833 258.167,326.167 255.5,326.5C 252.615,329.546 249.282,332.046 245.5,334C 251.803,334.661 257.969,335.828 264,337.5C 267.018,337.019 269.852,336.019 272.5,334.5C 273.795,335.098 275.128,335.598 276.5,336C 278.138,338.558 279.304,341.391 280,344.5C 281.501,346.584 283.501,347.917 286,348.5C 288.557,345.819 289.724,346.485 289.5,350.5C 288.167,350.5 286.833,350.5 285.5,350.5C 286.071,364.135 286.071,377.801 285.5,391.5C 285.558,400.328 286.225,408.995 287.5,417.5C 286.167,417.5 284.833,417.5 283.5,417.5C 283.83,397.66 283.497,377.993 282.5,358.5C 282.405,356.214 281.738,354.214 280.5,352.5C 278.865,347.869 275.865,344.535 271.5,342.5C 269.967,340.755 267.967,339.755 265.5,339.5C 261.689,338.355 257.689,338.188 253.5,339C 251.68,339.2 250.347,340.034 249.5,341.5C 244.896,343.105 241.562,346.105 239.5,350.5C 238.89,351.391 238.557,352.391 238.5,353.5C 236.926,355.102 236.259,357.102 236.5,359.5C 235.503,378.659 235.17,397.993 235.5,417.5C 229.833,417.5 224.167,417.5 218.5,417.5C 218.5,386.167 218.5,354.833 218.5,323.5C 224.167,323.5 229.833,323.5 235.5,323.5C 235.335,326.85 235.502,330.183 236,333.5C 237.579,334.8 238.745,334.466 239.5,332.5C 239.5,331.167 240.167,330.5 241.5,330.5C 243.94,329.762 245.94,328.429 247.5,326.5C 249.858,324.871 252.524,323.705 255.5,323C 261.016,322.183 266.35,322.349 271.5,323.5 Z"/></g>
<g><path style="opacity:1" fill="#617d78" d="M 247.5,326.5 C 245.94,328.429 243.94,329.762 241.5,330.5C 242.663,328.018 244.663,326.684 247.5,326.5 Z"/></g>
<g><path style="opacity:1" fill="#f0fbf8" d="M 558.5,330.5 C 557.248,332.001 556.248,333.668 555.5,335.5C 554.515,331.366 554.182,327.032 554.5,322.5C 547.978,322.177 541.645,322.51 535.5,323.5C 534.502,354.996 534.168,386.662 534.5,418.5C 532.57,387.171 531.737,355.504 532,323.5C 532.75,322.874 533.584,322.374 534.5,322C 543.581,321.61 552.581,320.943 561.5,320C 560.167,321.333 558.833,322.667 557.5,324C 557.833,324.333 558.167,324.667 558.5,325C 555.861,327.008 555.861,328.841 558.5,330.5 Z"/></g>
<g><path style="opacity:1" fill="#718e87" d="M 535.5,323.5 C 535.5,354.833 535.5,386.167 535.5,417.5C 541.5,417.5 547.5,417.5 553.5,417.5C 553.17,397.66 553.503,377.993 554.5,358.5C 554.667,378.503 554.5,398.503 554,418.5C 547.401,419.826 540.901,419.826 534.5,418.5C 534.168,386.662 534.502,354.996 535.5,323.5 Z"/></g>
<g><path style="opacity:1" fill="#0b4034" d="M 641.5,325.5 C 639.815,326.184 638.815,327.517 638.5,329.5C 633.88,330.493 629.214,330.827 624.5,330.5C 624.67,329.178 624.337,328.011 623.5,327C 618.331,326.271 613.331,326.938 608.5,329C 605.629,330.935 602.629,332.601 599.5,334C 601.937,335.375 604.603,335.875 607.5,335.5C 607.5,336.833 607.5,338.167 607.5,339.5C 609.74,337.65 612.406,336.65 615.5,336.5C 623.818,337.206 632.152,337.706 640.5,338C 644.039,338.336 646.206,340.169 647,343.5C 647.333,343.167 647.667,342.833 648,342.5C 648.567,345.168 649.067,347.834 649.5,350.5C 646.789,346.788 643.456,343.788 639.5,341.5C 637.095,340.232 634.428,339.565 631.5,339.5C 625.068,337.746 619.068,338.746 613.5,342.5C 610.865,343.473 608.865,345.14 607.5,347.5C 607.5,347.833 607.5,348.167 607.5,348.5C 602.791,351.925 600.791,356.592 601.5,362.5C 618.5,362.5 635.5,362.5 652.5,362.5C 653.29,361.391 653.79,360.058 654,358.5C 654.857,361.551 654.19,364.217 652,366.5C 650.601,365.773 649.101,365.273 647.5,365C 634.154,364.167 620.821,364.334 607.5,365.5C 607.709,366.086 608.043,366.586 608.5,367C 616.324,366.799 624.157,366.299 632,365.5C 634.5,365.667 637,365.833 639.5,366C 639.616,367.268 639.949,368.602 640.5,370C 650.494,370.5 660.494,370.666 670.5,370.5C 669.911,367.496 668.911,364.663 667.5,362C 668.729,356.578 667.729,351.578 664.5,347C 664.645,346.228 664.978,345.561 665.5,345C 660.335,342.263 657.001,338.096 655.5,332.5C 664.436,338.81 669.603,347.477 671,358.5C 671.5,364.825 671.666,371.158 671.5,377.5C 647.833,377.5 624.167,377.5 600.5,377.5C 600.216,379.415 600.549,381.081 601.5,382.5C 601.62,385.578 602.62,388.245 604.5,390.5C 606.606,392.272 608.273,394.438 609.5,397C 612.875,399.181 616.542,400.681 620.5,401.5C 625.316,402.65 630.316,402.816 635.5,402C 637.32,401.8 638.653,400.966 639.5,399.5C 643.395,398.607 646.062,396.274 647.5,392.5C 647.328,391.508 647.662,390.842 648.5,390.5C 648.833,390.5 649.167,390.5 649.5,390.5C 655.926,389.88 661.926,390.547 667.5,392.5C 667.296,394.685 666.63,396.685 665.5,398.5C 661.5,403.833 656.833,408.5 651.5,412.5C 645.974,414.704 640.307,416.37 634.5,417.5C 627.465,417.674 620.465,417.341 613.5,416.5C 606.929,414.432 600.929,411.265 595.5,407C 592.686,404.679 590.686,401.846 589.5,398.5C 588.416,395.996 587.083,393.663 585.5,391.5C 584.654,388.452 583.654,385.452 582.5,382.5C 582.284,373.467 582.617,364.467 583.5,355.5C 583.837,351.575 585.004,347.908 587,344.5C 588.049,342.382 589.549,340.716 591.5,339.5C 594.5,337.167 597.167,334.5 599.5,331.5C 604.245,327.966 609.578,325.466 615.5,324C 623.5,323.333 631.5,323.333 639.5,324C 640.416,324.278 641.082,324.778 641.5,325.5 Z"/></g>
<g><path style="opacity:1" fill="#849c95" d="M 170.5,335.5 C 170.834,338.491 169.834,340.824 167.5,342.5C 167.935,339.843 168.935,337.509 170.5,335.5 Z"/></g>
<g><path style="opacity:1" fill="#577b74" d="M 265.5,339.5 C 261.629,339.185 257.962,339.518 254.5,340.5C 252.784,340.629 251.117,340.962 249.5,341.5C 250.347,340.034 251.68,339.2 253.5,339C 257.689,338.188 261.689,338.355 265.5,339.5 Z"/></g>
<g><path style="opacity:1" fill="#607572" d="M 446.5,337.5 C 445.92,339.749 444.587,341.415 442.5,342.5C 443.08,340.251 444.413,338.585 446.5,337.5 Z"/></g>
<g><path style="opacity:1" fill="#e3f1f0" d="M 79.5,330.5 C 82.4488,331.614 84.6155,333.614 86,336.5C 88.9809,340.923 91.1475,345.589 92.5,350.5C 92.3455,353.716 93.3455,356.383 95.5,358.5C 97.7098,362.142 98.7098,366.142 98.5,370.5C 97.7356,368.26 96.9023,365.927 96,363.5C 95.6667,363.833 95.3333,364.167 95,364.5C 93.4138,362.33 92.0804,359.996 91,357.5C 90.1224,351.413 87.2891,345.58 82.5,340C 83.2335,338.234 83.5668,336.401 83.5,334.5C 82.1667,334.5 80.8333,334.5 79.5,334.5C 79.5,333.167 79.5,331.833 79.5,330.5 Z"/></g>
<g><path style="opacity:1" fill="#8aa39f" d="M 631.5,339.5 C 634.428,339.565 637.095,340.232 639.5,341.5C 636.505,341.706 633.838,341.04 631.5,339.5 Z"/></g>
<g><path style="opacity:1" fill="#9cb8b3" d="M 254.5,340.5 C 257.962,339.518 261.629,339.185 265.5,339.5C 267.967,339.755 269.967,340.755 271.5,342.5C 265.989,340.79 260.323,340.123 254.5,340.5 Z"/></g>
<g><path style="opacity:1" fill="#395b54" d="M 325.5,332.5 C 326.167,332.5 326.833,332.5 327.5,332.5C 326.207,334.296 324.707,335.963 323,337.5C 322.316,338.784 322.483,339.951 323.5,341C 320.733,342.037 318.399,343.537 316.5,345.5C 318.344,341.565 320.678,337.899 323.5,334.5C 324.5,334.167 325.167,333.5 325.5,332.5 Z"/></g>
<g><path style="opacity:1" fill="#97b3ae" d="M 631.5,339.5 C 625.314,339.549 619.314,340.549 613.5,342.5C 619.068,338.746 625.068,337.746 631.5,339.5 Z"/></g>
<g><path style="opacity:1" fill="#d7eae7" d="M 422.5,340.5 C 423.59,341.857 424.924,342.857 426.5,343.5C 425.209,343.263 424.209,343.596 423.5,344.5C 418.809,345.673 414.142,345.673 409.5,344.5C 408.791,343.596 407.791,343.263 406.5,343.5C 407.278,342.844 407.944,342.011 408.5,341C 405.867,334.55 405.867,328.05 408.5,321.5C 412.547,321.695 416.547,321.362 420.5,320.5C 422.405,321.065 424.071,322.065 425.5,323.5C 427.934,329.005 427.767,334.339 425,339.5C 424.329,340.252 423.496,340.586 422.5,340.5 Z"/></g>
<g><path style="opacity:1" fill="#4d6c66" d="M 409.5,338.5 C 414.167,341.167 418.833,341.167 423.5,338.5C 423.167,339.167 422.833,339.833 422.5,340.5C 418.922,341.589 415.255,341.755 411.5,341C 410.619,340.292 409.953,339.458 409.5,338.5 Z"/></g>
<g><path style="opacity:1" fill="#0b3f2f" d="M 412.5,323.5 C 416.415,323.247 420.081,323.913 423.5,325.5C 426.067,329.87 426.067,334.203 423.5,338.5C 418.833,341.167 414.167,341.167 409.5,338.5C 408.883,338.389 408.383,338.056 408,337.5C 407.502,334.518 407.335,331.518 407.5,328.5C 409.5,327.167 411.167,325.5 412.5,323.5 Z"/></g>
<g><path style="opacity:1" fill="#709185" d="M 412.5,323.5 C 411.167,325.5 409.5,327.167 407.5,328.5C 408.167,325.833 409.833,324.167 412.5,323.5 Z"/></g>
<g><path style="opacity:1" fill="#829d97" d="M 412.5,323.5 C 416.588,321.803 420.255,322.47 423.5,325.5C 420.081,323.913 416.415,323.247 412.5,323.5 Z"/></g>
<g><path style="opacity:1" fill="#0a3d32" d="M 535.5,323.5 C 541.5,323.5 547.5,323.5 553.5,323.5C 553.174,327.884 553.508,332.217 554.5,336.5C 555.107,336.376 555.44,336.043 555.5,335.5C 556.248,333.668 557.248,332.001 558.5,330.5C 560.85,329.139 563.184,327.806 565.5,326.5C 570.346,324.961 575.346,324.294 580.5,324.5C 580.5,330.167 580.5,335.833 580.5,341.5C 576.629,341.185 572.962,341.518 569.5,342.5C 565.569,343.132 562.235,344.799 559.5,347.5C 558.075,348.922 557.075,350.589 556.5,352.5C 554.926,354.102 554.259,356.102 554.5,358.5C 553.503,377.993 553.17,397.66 553.5,417.5C 547.5,417.5 541.5,417.5 535.5,417.5C 535.5,386.167 535.5,354.833 535.5,323.5 Z"/></g>
<g><path style="opacity:1" fill="#024034" d="M 536.5,325.5 C 538.833,325.5 541.167,325.5 543.5,325.5C 543.827,328.482 543.827,331.315 543.5,334C 546.1,336.422 549.1,338.255 552.5,339.5C 555.283,342.342 554.95,344.842 551.5,347C 549.382,347.26 547.716,348.26 546.5,350C 548.727,350.121 550.56,350.954 552,352.5C 552.889,351.112 553.389,351.278 553.5,353C 552.896,355.584 552.063,358.084 551,360.5C 550.304,376.176 550.47,391.842 551.5,407.5C 551.167,410.167 550.833,412.833 550.5,415.5C 546.183,416.689 541.85,416.689 537.5,415.5C 536.655,385.508 536.322,355.508 536.5,325.5 Z"/></g>
<g><path style="opacity:1" fill="#e7f2f1" d="M 649.5,327.5 C 646.888,326.629 644.221,325.963 641.5,325.5C 641.082,324.778 640.416,324.278 639.5,324C 631.5,323.333 623.5,323.333 615.5,324C 609.578,325.466 604.245,327.966 599.5,331.5C 595.833,333.167 593.167,335.833 591.5,339.5C 589.549,340.716 588.049,342.382 587,344.5C 585.004,347.908 583.837,351.575 583.5,355.5C 582.732,356.263 582.232,357.263 582,358.5C 581.177,366.677 581.344,374.677 582.5,382.5C 583.654,385.452 584.654,388.452 585.5,391.5C 585.5,392.5 585.5,393.5 585.5,394.5C 584.527,393.209 583.527,393.209 582.5,394.5C 581.833,395.833 581.167,397.167 580.5,398.5C 579.481,396.049 579.481,393.549 580.5,391C 579.082,382 578.082,373 577.5,364C 578.169,358.328 579.836,352.994 582.5,348C 579.209,347.016 576.043,345.849 573,344.5C 569.455,345.404 565.955,346.404 562.5,347.5C 564.385,345.689 566.719,344.522 569.5,344C 573.688,343.824 577.688,343.324 581.5,342.5C 581.5,336.167 581.5,329.833 581.5,323.5C 585.579,327.143 586.579,331.643 584.5,337C 584.509,338.404 585.009,339.57 586,340.5C 589.616,336.106 593.116,331.606 596.5,327C 603.274,323.461 610.274,321.627 617.5,321.5C 619.167,320.5 620.833,319.5 622.5,318.5C 627.861,320.105 633.361,321.105 639,321.5C 639.333,321.167 639.667,320.833 640,320.5C 641.977,323.546 644.811,325.213 648.5,325.5C 649.298,325.957 649.631,326.624 649.5,327.5 Z"/></g>
<g><path style="opacity:1" fill="#c8dedb" d="M 187.5,329.5 C 187.221,339.56 191.888,343.227 201.5,340.5C 199.169,342.085 196.503,343.251 193.5,344C 196.817,344.498 200.15,344.665 203.5,344.5C 199.084,346.727 194.417,347.061 189.5,345.5C 189.5,345.167 189.5,344.833 189.5,344.5C 188.791,343.596 187.791,343.263 186.5,343.5C 186.288,338.852 186.622,334.186 187.5,329.5 Z"/></g>
<g><path style="opacity:1" fill="#f6fafa" d="M 503.5,352.5 C 504.299,355.43 504.632,358.43 504.5,361.5C 488.167,361.5 471.833,361.5 455.5,361.5C 455.268,357.543 456.101,353.876 458,350.5C 461.29,346.893 464.79,343.56 468.5,340.5C 477.294,338.841 485.961,339.341 494.5,342C 498.137,345.123 501.137,348.623 503.5,352.5 Z"/></g>
<g><path style="opacity:1" fill="#f9fcfc" d="M 631.5,339.5 C 633.838,341.04 636.505,341.706 639.5,341.5C 643.456,343.788 646.789,346.788 649.5,350.5C 649.259,352.898 649.926,354.898 651.5,356.5C 651.5,357.167 651.5,357.833 651.5,358.5C 651.5,359.5 651.5,360.5 651.5,361.5C 635.167,361.5 618.833,361.5 602.5,361.5C 603.196,356.736 604.863,352.403 607.5,348.5C 607.5,348.167 607.5,347.833 607.5,347.5C 610.089,346.581 612.089,344.914 613.5,342.5C 619.314,340.549 625.314,339.549 631.5,339.5 Z"/></g>
<g><path style="opacity:1" fill="#9cb4b0" d="M 613.5,342.5 C 612.089,344.914 610.089,346.581 607.5,347.5C 608.865,345.14 610.865,343.473 613.5,342.5 Z"/></g>
<g><path style="opacity:1" fill="#8aaba2" d="M 569.5,342.5 C 573.5,342.5 577.5,342.5 581.5,342.5C 577.688,343.324 573.688,343.824 569.5,344C 566.719,344.522 564.385,345.689 562.5,347.5C 561.5,347.5 560.5,347.5 559.5,347.5C 562.235,344.799 565.569,343.132 569.5,342.5 Z"/></g>
<g><path style="opacity:1" fill="#92b0aa" d="M 409.5,344.5 C 414.142,345.673 418.809,345.673 423.5,344.5C 422.5,345.167 421.5,345.833 420.5,346.5C 417.15,346.665 413.817,346.498 410.5,346C 409.944,345.617 409.611,345.117 409.5,344.5 Z"/></g>
<g><path style="opacity:1" fill="#63827c" d="M 442.5,342.5 C 442.167,343.833 441.833,345.167 441.5,346.5C 441.167,347.5 440.5,348.167 439.5,348.5C 439.755,346.033 440.755,344.033 442.5,342.5 Z"/></g>
<g><path style="opacity:1" fill="#7b9a91" d="M 343.5,341.5 C 341.176,344.313 338.51,346.646 335.5,348.5C 337.368,345.236 340.035,342.902 343.5,341.5 Z"/></g>
<g><path style="opacity:1" fill="#0b4036" d="M 468.5,340.5 C 464.79,343.56 461.29,346.893 458,350.5C 456.101,353.876 455.268,357.543 455.5,361.5C 471.992,362.497 488.658,362.83 505.5,362.5C 488.995,363.167 472.328,363.833 455.5,364.5C 468.821,365.333 482.154,365.833 495.5,366C 495.616,367.268 495.949,368.602 496.5,370C 501.489,370.499 506.489,370.666 511.5,370.5C 511.5,371.833 511.5,373.167 511.5,374.5C 514.553,374.111 517.22,374.777 519.5,376.5C 497.66,376.169 475.994,376.503 454.5,377.5C 454.216,379.415 454.549,381.081 455.5,382.5C 456.994,387.138 459.161,391.471 462,395.5C 463.972,397.232 466.139,398.565 468.5,399.5C 477.676,403.763 486.676,403.43 495.5,398.5C 499.014,397.151 501.347,394.651 502.5,391C 505.667,390.833 508.833,390.667 512,390.5C 515.576,390.515 518.742,391.182 521.5,392.5C 518.982,398.023 515.648,403.023 511.5,407.5C 506.634,411.375 501.3,414.375 495.5,416.5C 485.841,417.709 476.175,417.709 466.5,416.5C 462.991,414.774 459.325,413.441 455.5,412.5C 455.5,412.167 455.5,411.833 455.5,411.5C 455.167,410.833 454.833,410.167 454.5,409.5C 456.5,409.5 458.5,409.5 460.5,409.5C 460.354,407.058 461.187,406.391 463,407.5C 463.977,409.74 464.477,412.073 464.5,414.5C 470.288,414.439 475.954,415.106 481.5,416.5C 486.037,415.347 490.704,414.68 495.5,414.5C 495.33,413.178 495.663,412.011 496.5,411C 502.155,408.541 507.488,405.374 512.5,401.5C 518.046,392.744 515.713,389.91 505.5,393C 502.076,395.754 499.409,399.087 497.5,403C 495.527,403.495 493.527,403.662 491.5,403.5C 491.719,404.675 491.386,405.675 490.5,406.5C 489.532,405.511 488.365,404.844 487,404.5C 479.158,406.165 471.658,405.165 464.5,401.5C 463.614,400.675 463.281,399.675 463.5,398.5C 459.991,398.192 458.324,396.192 458.5,392.5C 456.058,392.354 455.391,393.187 456.5,395C 455.514,399.335 453.014,400.502 449,398.5C 448.308,399.025 447.808,399.692 447.5,400.5C 451.85,400.878 453.517,403.211 452.5,407.5C 451.609,406.89 450.609,406.557 449.5,406.5C 443.194,399.558 438.694,391.558 436,382.5C 435.199,374.088 435.366,365.755 436.5,357.5C 437.924,355.485 438.59,353.152 438.5,350.5C 438.833,349.833 439.167,349.167 439.5,348.5C 440.5,348.167 441.167,347.5 441.5,346.5C 442.363,345.537 443.03,345.537 443.5,346.5C 440.96,350.11 441.96,351.11 446.5,349.5C 448.326,344.515 450.326,344.682 452.5,350C 447.611,351.411 447.278,353.577 451.5,356.5C 455.449,350.326 459.615,344.326 464,338.5C 465.47,339.267 466.97,339.933 468.5,340.5 Z"/></g>
<g><path style="opacity:1" fill="#033d31" d="M 409.5,344.5 C 409.611,345.117 409.944,345.617 410.5,346C 413.817,346.498 417.15,346.665 420.5,346.5C 422.124,346.36 423.29,347.027 424,348.5C 424.5,371.498 424.667,394.498 424.5,417.5C 418.833,417.5 413.167,417.5 407.5,417.5C 406.843,392.81 407.51,368.477 409.5,344.5 Z"/></g>
<g><path style="opacity:1" fill="#064031" d="M 83.5,320.5 C 84.5676,321.434 85.901,321.768 87.5,321.5C 95.708,325.704 102.375,331.704 107.5,339.5C 110.569,347.041 113.236,354.707 115.5,362.5C 115.66,364.199 115.494,365.866 115,367.5C 114.431,363.639 113.598,363.639 112.5,367.5C 109.196,367.322 107.529,365.656 107.5,362.5C 99.3526,363.778 96.3526,360.278 98.5,352C 97.3333,351.5 96.5,350.667 96,349.5C 95.6667,349.833 95.3333,350.167 95,350.5C 94.5483,347.123 93.8816,343.789 93,340.5C 90.6045,338.056 88.4378,335.39 86.5,332.5C 87.6446,331.109 87.6446,329.776 86.5,328.5C 85.8333,329.167 85.1667,329.833 84.5,330.5C 83.1585,328.995 81.4918,328.328 79.5,328.5C 76.8021,328.155 74.8021,326.822 73.5,324.5C 73.4142,323.504 73.7476,322.671 74.5,322C 72.9559,321.71 71.6226,321.044 70.5,320C 74.848,319.585 79.1813,319.751 83.5,320.5 Z"/></g>
<g><path style="opacity:1" fill="#7c9895" d="M 186.5,343.5 C 187.791,343.263 188.791,343.596 189.5,344.5C 187.51,368.477 186.843,392.81 187.5,417.5C 188.833,417.5 190.167,417.5 191.5,417.5C 196.167,417.5 200.833,417.5 205.5,417.5C 206.157,392.81 205.49,368.477 203.5,344.5C 204.209,343.596 205.209,343.263 206.5,343.5C 206.667,368.502 206.5,393.502 206,418.5C 199.667,419.833 193.333,419.833 187,418.5C 186.5,393.502 186.333,368.502 186.5,343.5 Z"/></g>
<g><path style="opacity:1" fill="#053e32" d="M 203.5,344.5 C 205.49,368.477 206.157,392.81 205.5,417.5C 200.833,417.5 196.167,417.5 191.5,417.5C 189.543,393.661 188.876,369.661 189.5,345.5C 194.417,347.061 199.084,346.727 203.5,344.5 Z"/></g>
<g><path style="opacity:1" fill="#6f8f87" d="M 406.5,343.5 C 407.791,343.263 408.791,343.596 409.5,344.5C 407.51,368.477 406.843,392.81 407.5,417.5C 407.167,417.5 406.833,417.5 406.5,417.5C 406.5,392.833 406.5,368.167 406.5,343.5 Z"/></g>
<g><path style="opacity:1" fill="#305147" d="M 423.5,344.5 C 425.49,368.811 426.157,393.477 425.5,418.5C 419.31,418.823 413.31,418.49 407.5,417.5C 413.167,417.5 418.833,417.5 424.5,417.5C 424.667,394.498 424.5,371.498 424,348.5C 423.29,347.027 422.124,346.36 420.5,346.5C 421.5,345.833 422.5,345.167 423.5,344.5 Z"/></g>
<g><path style="opacity:1" fill="#98aea8" d="M 423.5,344.5 C 424.209,343.596 425.209,343.263 426.5,343.5C 426.831,368.672 426.498,393.672 425.5,418.5C 426.157,393.477 425.49,368.811 423.5,344.5 Z"/></g>
<g><path style="opacity:1" fill="#86a199" d="M 92.5,350.5 C 93.871,352.936 94.871,355.603 95.5,358.5C 93.3455,356.383 92.3455,353.716 92.5,350.5 Z"/></g>
<g><path style="opacity:1" fill="#bdd2cc" d="M 394.5,342.5 C 395.5,342.5 396.5,342.5 397.5,342.5C 398.272,346.452 398.605,350.452 398.5,354.5C 391.167,354.5 383.833,354.5 376.5,354.5C 376.371,352.784 376.038,351.117 375.5,349.5C 377.104,350.287 377.771,351.62 377.5,353.5C 384.167,353.5 390.833,353.5 397.5,353.5C 396.697,349.761 395.697,346.095 394.5,342.5 Z"/></g>
<g><path style="opacity:1" fill="#678580" d="M 438.5,350.5 C 438.59,353.152 437.924,355.485 436.5,357.5C 436.41,354.848 437.076,352.515 438.5,350.5 Z"/></g>
<g><path style="opacity:1" fill="#e5f3f1" d="M 518.5,340.5 C 521.651,341.623 524.151,343.623 526,346.5C 528.234,357.037 529.068,367.704 528.5,378.5C 504.863,379.304 481.197,379.804 457.5,380C 458.5,380.333 459.5,380.667 460.5,381C 459.572,381.388 458.905,382.055 458.5,383C 459.078,384.811 459.578,386.645 460,388.5C 460.741,389.641 461.575,389.641 462.5,388.5C 463.386,389.325 463.719,390.325 463.5,391.5C 466.363,391.929 469.029,392.929 471.5,394.5C 471.192,395.308 470.692,395.975 470,396.5C 468.951,395.483 467.784,395.316 466.5,396C 467.305,397.113 467.972,398.279 468.5,399.5C 466.139,398.565 463.972,397.232 462,395.5C 459.161,391.471 456.994,387.138 455.5,382.5C 455.5,381.167 455.5,379.833 455.5,378.5C 478.673,378.831 501.673,378.498 524.5,377.5C 525.833,371.167 525.833,364.833 524.5,358.5C 524.124,354.598 523.124,350.931 521.5,347.5C 520.242,345.313 519.242,342.98 518.5,340.5 Z"/></g>
<g><path style="opacity:1" fill="#809e98" d="M 649.5,350.5 C 651.074,352.102 651.741,354.102 651.5,356.5C 649.926,354.898 649.259,352.898 649.5,350.5 Z"/></g>
<g><path style="opacity:1" fill="#7e9e97" d="M 556.5,352.5 C 556.741,354.898 556.074,356.898 554.5,358.5C 554.259,356.102 554.926,354.102 556.5,352.5 Z"/></g>
<g><path style="opacity:1" fill="#abc0bd" d="M 503.5,352.5 C 504.966,353.347 505.8,354.68 506,356.5C 506.789,358.712 506.622,360.712 505.5,362.5C 488.658,362.83 471.992,362.497 455.5,361.5C 471.833,361.5 488.167,361.5 504.5,361.5C 504.632,358.43 504.299,355.43 503.5,352.5 Z"/></g>
<g><path style="opacity:1" fill="#aabfbc" d="M 607.5,348.5 C 604.863,352.403 603.196,356.736 602.5,361.5C 618.833,361.5 635.167,361.5 651.5,361.5C 651.5,360.5 651.5,359.5 651.5,358.5C 652.434,359.568 652.768,360.901 652.5,362.5C 635.5,362.5 618.5,362.5 601.5,362.5C 600.791,356.592 602.791,351.925 607.5,348.5 Z"/></g>
<g><path style="opacity:1" fill="#aac3c2" d="M 238.5,353.5 C 237.877,375.314 237.21,396.98 236.5,418.5C 236.5,398.833 236.5,379.167 236.5,359.5C 236.259,357.102 236.926,355.102 238.5,353.5 Z"/></g>
<g><path style="opacity:1" fill="#5d7c73" d="M 583.5,355.5 C 582.617,364.467 582.284,373.467 582.5,382.5C 581.344,374.677 581.177,366.677 582,358.5C 582.232,357.263 582.732,356.263 583.5,355.5 Z"/></g>
<g><path style="opacity:1" fill="#0e4035" d="M 155.5,323.5 C 161.5,323.5 167.5,323.5 173.5,323.5C 173.5,324.5 173.5,325.5 173.5,326.5C 172.958,329.673 171.958,332.673 170.5,335.5C 168.935,337.509 167.935,339.843 167.5,342.5C 163.844,353.132 160.178,363.799 156.5,374.5C 155.883,374.611 155.383,374.944 155,375.5C 152.543,385.105 149.377,394.438 145.5,403.5C 143.926,405.102 143.259,407.102 143.5,409.5C 141.802,412.034 140.469,414.868 139.5,418C 131.841,418.5 124.174,418.666 116.5,418.5C 116.5,418.167 116.5,417.833 116.5,417.5C 123.167,417.5 129.833,417.5 136.5,417.5C 136.701,414.272 136.367,411.105 135.5,408C 135.944,406.238 136.444,406.405 137,408.5C 141.719,404.644 143.886,399.644 143.5,393.5C 144.5,393.5 145.5,393.5 146.5,393.5C 146.67,392.178 146.337,391.011 145.5,390C 147.865,388.616 149.532,386.616 150.5,384C 149.107,382.699 148.607,381.199 149,379.5C 150.185,377.623 151.185,375.623 152,373.5C 152.333,373.833 152.667,374.167 153,374.5C 153.43,371.808 153.263,369.141 152.5,366.5C 149.167,366.5 145.833,366.5 142.5,366.5C 141.965,370.819 141.465,375.152 141,379.5C 140.667,378.5 140.333,377.5 140,376.5C 138.274,378.88 137.774,381.38 138.5,384C 135.425,388.376 133.259,393.209 132,398.5C 128.535,399.267 124.702,399.6 120.5,399.5C 120.66,397.801 120.494,396.134 120,394.5C 119.273,396.953 118.273,399.286 117,401.5C 116.751,400.376 116.251,399.376 115.5,398.5C 115.167,399 114.833,399.5 114.5,400C 115.659,403.451 116.159,406.951 116,410.5C 115.148,409.429 114.315,408.429 113.5,407.5C 112.167,404.459 110.833,401.459 109.5,398.5C 107.468,390.716 104.968,383.05 102,375.5C 101.098,373.569 99.9312,371.903 98.5,370.5C 98.7098,366.142 97.7098,362.142 95.5,358.5C 94.871,355.603 93.871,352.936 92.5,350.5C 91.1475,345.589 88.9809,340.923 86,336.5C 84.6155,333.614 82.4488,331.614 79.5,330.5C 79.5,329.833 79.5,329.167 79.5,328.5C 81.4918,328.328 83.1585,328.995 84.5,330.5C 85.1667,329.833 85.8333,329.167 86.5,328.5C 87.6446,329.776 87.6446,331.109 86.5,332.5C 88.4378,335.39 90.6045,338.056 93,340.5C 93.8816,343.789 94.5483,347.123 95,350.5C 95.3333,350.167 95.6667,349.833 96,349.5C 96.5,350.667 97.3333,351.5 98.5,352C 96.3526,360.278 99.3526,363.778 107.5,362.5C 107.529,365.656 109.196,367.322 112.5,367.5C 113.598,363.639 114.431,363.639 115,367.5C 115.494,365.866 115.66,364.199 115.5,362.5C 118.311,369.38 120.977,376.38 123.5,383.5C 123.41,386.152 124.076,388.485 125.5,390.5C 127.532,398.465 129.532,398.465 131.5,390.5C 133.4,387.482 134.733,384.149 135.5,380.5C 135.595,378.214 136.262,376.214 137.5,374.5C 138.924,372.485 139.59,370.152 139.5,367.5C 139.5,367.167 139.5,366.833 139.5,366.5C 143.138,355.923 146.804,345.256 150.5,334.5C 151.417,330.514 153.083,326.848 155.5,323.5 Z"/></g>
<g><path style="opacity:1" fill="#78878a" d="M 139.5,367.5 C 139.59,370.152 138.924,372.485 137.5,374.5C 137.41,371.848 138.076,369.515 139.5,367.5 Z"/></g>
<g><path style="opacity:1" fill="#dfeeea" d="M 150.5,334.5 C 146.804,345.256 143.138,355.923 139.5,366.5C 139.739,364.533 139.406,362.699 138.5,361C 140,360.167 141.167,359 142,357.5C 142.744,349.526 144.577,341.859 147.5,334.5C 148.5,334.5 149.5,334.5 150.5,334.5 Z"/></g>
<g><path style="opacity:1" fill="#0a4034" d="M 367.5,323.5 C 369.792,325.267 372.458,326.267 375.5,326.5C 377.942,328.226 380.609,329.726 383.5,331C 385.703,333.372 388.037,335.539 390.5,337.5C 391.345,338.671 392.011,340.005 392.5,341.5C 390.311,342.408 388.144,342.075 386,340.5C 385.383,341.449 385.549,342.282 386.5,343C 385.833,343.667 385.167,343.667 384.5,343C 384.06,340.838 383.727,338.671 383.5,336.5C 381.138,335.729 378.804,334.895 376.5,334C 375.347,329.413 372.347,327.246 367.5,327.5C 367.5,328.833 367.5,330.167 367.5,331.5C 362.489,331.334 357.489,331.501 352.5,332C 351.594,333.699 351.261,335.533 351.5,337.5C 357.621,337.09 363.621,337.59 369.5,339C 368.167,339.667 368.167,340.333 369.5,341C 370.448,341.483 371.448,341.649 372.5,341.5C 372.433,342.959 372.766,344.292 373.5,345.5C 370.081,343.089 366.414,341.089 362.5,339.5C 357.684,338.35 352.684,338.184 347.5,339C 345.934,339.608 344.6,340.442 343.5,341.5C 340.035,342.902 337.368,345.236 335.5,348.5C 335.5,349.167 335.5,349.833 335.5,350.5C 333.71,352.83 332.21,355.497 331,358.5C 329.157,370.41 330.823,381.744 336,392.5C 338.167,394.667 340.333,396.833 342.5,399C 345.171,400.903 348.171,401.736 351.5,401.5C 356.015,402.812 360.682,402.812 365.5,401.5C 366.243,400.818 366.909,400.151 367.5,399.5C 371.395,398.607 374.062,396.274 375.5,392.5C 375.328,391.508 375.662,390.842 376.5,390.5C 379.917,389.87 383.417,389.537 387,389.5C 390.576,389.515 393.742,390.182 396.5,391.5C 394.751,396.926 391.751,401.593 387.5,405.5C 380.403,412.028 372.069,416.028 362.5,417.5C 355.378,417.825 348.378,417.159 341.5,415.5C 339.5,414.833 337.5,414.167 335.5,413.5C 333.682,411.433 331.349,410.1 328.5,409.5C 326.146,406.479 323.479,403.812 320.5,401.5C 313.712,391.878 310.379,381.044 310.5,369C 310.925,360.689 312.925,352.855 316.5,345.5C 318.399,343.537 320.733,342.037 323.5,341C 322.483,339.951 322.316,338.784 323,337.5C 324.707,335.963 326.207,334.296 327.5,332.5C 327.937,330.926 328.937,329.759 330.5,329C 334.693,327.075 339.026,325.408 343.5,324C 351.493,323.5 359.493,323.334 367.5,323.5 Z"/></g>
<g><path style="opacity:1" fill="#769591" d="M 362.5,339.5 C 356.013,339.152 349.68,339.818 343.5,341.5C 344.6,340.442 345.934,339.608 347.5,339C 352.684,338.184 357.684,338.35 362.5,339.5 Z"/></g>
<g><path style="opacity:1" fill="#31554f" d="M 524.5,358.5 C 525.833,364.833 525.833,371.167 524.5,377.5C 501.167,377.5 477.833,377.5 454.5,377.5C 475.994,376.503 497.66,376.169 519.5,376.5C 521.167,376.5 522.833,376.5 524.5,376.5C 524.5,370.5 524.5,364.5 524.5,358.5 Z"/></g>
<g><path style="opacity:1" fill="#8eaba7" d="M 454.5,377.5 C 477.833,377.5 501.167,377.5 524.5,377.5C 501.673,378.498 478.673,378.831 455.5,378.5C 455.5,379.833 455.5,381.167 455.5,382.5C 454.549,381.081 454.216,379.415 454.5,377.5 Z"/></g>
<g><path style="opacity:1" fill="#8eaba6" d="M 671.5,377.5 C 648.339,378.498 625.006,378.831 601.5,378.5C 601.5,379.833 601.5,381.167 601.5,382.5C 600.549,381.081 600.216,379.415 600.5,377.5C 624.167,377.5 647.833,377.5 671.5,377.5 Z"/></g>
<g><path style="opacity:1" fill="#8aa5a0" d="M 135.5,380.5 C 134.733,384.149 133.4,387.482 131.5,390.5C 131.882,386.668 133.215,383.335 135.5,380.5 Z"/></g>
<g><path style="opacity:1" fill="#103630" d="M 189.5,344.5 C 189.5,344.833 189.5,345.167 189.5,345.5C 188.876,369.661 189.543,393.661 191.5,417.5C 190.167,417.5 188.833,417.5 187.5,417.5C 186.843,392.81 187.51,368.477 189.5,344.5 Z"/></g>
<g><path style="opacity:1" fill="#607a79" d="M 601.5,382.5 C 603.38,384.755 604.38,387.422 604.5,390.5C 602.62,388.245 601.62,385.578 601.5,382.5 Z"/></g>
<g><path style="opacity:1" fill="#7f9b9a" d="M 123.5,383.5 C 124.924,385.515 125.59,387.848 125.5,390.5C 124.076,388.485 123.41,386.152 123.5,383.5 Z"/></g>
<g><path style="opacity:1" fill="#859e99" d="M 397.5,388.5 C 397.737,389.791 397.404,390.791 396.5,391.5C 393.742,390.182 390.576,389.515 387,389.5C 383.417,389.537 379.917,389.87 376.5,390.5C 383.087,388.539 390.087,387.872 397.5,388.5 Z"/></g>
<g><path style="opacity:1" fill="#b8cdc7" d="M 668.5,389.5 C 661.978,389.177 655.645,389.51 649.5,390.5C 649.167,390.5 648.833,390.5 648.5,390.5C 651.428,389.18 654.761,388.514 658.5,388.5C 662.018,388.502 665.351,388.835 668.5,389.5 Z"/></g>
<g><path style="opacity:1" fill="#4d6d65" d="M 649.5,390.5 C 655.645,389.51 661.978,389.177 668.5,389.5C 668.737,390.791 668.404,391.791 667.5,392.5C 661.926,390.547 655.926,389.88 649.5,390.5 Z"/></g>
<g><path style="opacity:1" fill="#e3f1f0" d="M 335.5,350.5 C 335.781,355.308 335.114,359.974 333.5,364.5C 334.833,370.167 334.833,375.833 333.5,381.5C 333.556,382.737 334.056,383.737 335,384.5C 339.364,383.294 339.531,383.794 335.5,386C 336.669,388.007 337.335,390.173 337.5,392.5C 341.529,392.057 343.529,393.891 343.5,398C 351.159,398.5 358.826,398.666 366.5,398.5C 366.784,395.746 367.451,393.08 368.5,390.5C 370.326,390.92 372.326,390.92 374.5,390.5C 370.893,382.607 372.893,380.774 380.5,385C 379.833,385.333 379.167,385.667 378.5,386C 384.977,386.862 391.311,387.695 397.5,388.5C 390.087,387.872 383.087,388.539 376.5,390.5C 375.662,390.842 375.328,391.508 375.5,392.5C 372.808,394.862 370.141,397.196 367.5,399.5C 362.304,401.087 356.97,401.754 351.5,401.5C 348.171,401.736 345.171,400.903 342.5,399C 340.333,396.833 338.167,394.667 336,392.5C 330.823,381.744 329.157,370.41 331,358.5C 332.21,355.497 333.71,352.83 335.5,350.5 Z"/></g>
<g><path style="opacity:1" fill="#ddeeec" d="M 156.5,374.5 C 154.448,382.241 152.615,390.241 151,398.5C 149.989,399.337 148.822,399.67 147.5,399.5C 147.771,401.38 147.104,402.713 145.5,403.5C 149.377,394.438 152.543,385.105 155,375.5C 155.383,374.944 155.883,374.611 156.5,374.5 Z"/></g>
<g><path style="opacity:1" fill="#8ba2a2" d="M 585.5,391.5 C 587.083,393.663 588.416,395.996 589.5,398.5C 587.5,397.833 586.167,396.5 585.5,394.5C 585.5,393.5 585.5,392.5 585.5,391.5 Z"/></g>
<g><path style="opacity:1" fill="#64817b" d="M 521.5,392.5 C 518.742,391.182 515.576,390.515 512,390.5C 508.833,390.667 505.667,390.833 502.5,391C 501.347,394.651 499.014,397.151 495.5,398.5C 498.03,396.121 500.03,393.288 501.5,390C 508.492,389.5 515.492,389.334 522.5,389.5C 522.737,390.791 522.404,391.791 521.5,392.5 Z"/></g>
<g><path style="opacity:1" fill="#597a77" d="M 375.5,392.5 C 374.062,396.274 371.395,398.607 367.5,399.5C 370.141,397.196 372.808,394.862 375.5,392.5 Z"/></g>
<g><path style="opacity:1" fill="#688684" d="M 647.5,392.5 C 646.062,396.274 643.395,398.607 639.5,399.5C 642.141,397.196 644.808,394.862 647.5,392.5 Z"/></g>
<g><path style="opacity:1" fill="#044031" d="M 116.5,417.5 C 115.664,414.093 114.664,410.759 113.5,407.5C 114.315,408.429 115.148,409.429 116,410.5C 116.159,406.951 115.659,403.451 114.5,400C 114.833,399.5 115.167,399 115.5,398.5C 116.251,399.376 116.751,400.376 117,401.5C 118.273,399.286 119.273,396.953 120,394.5C 120.494,396.134 120.66,397.801 120.5,399.5C 124.702,399.6 128.535,399.267 132,398.5C 133.259,393.209 135.425,388.376 138.5,384C 137.774,381.38 138.274,378.88 140,376.5C 140.333,377.5 140.667,378.5 141,379.5C 141.465,375.152 141.965,370.819 142.5,366.5C 145.833,366.5 149.167,366.5 152.5,366.5C 153.263,369.141 153.43,371.808 153,374.5C 152.667,374.167 152.333,373.833 152,373.5C 151.185,375.623 150.185,377.623 149,379.5C 148.607,381.199 149.107,382.699 150.5,384C 149.532,386.616 147.865,388.616 145.5,390C 146.337,391.011 146.67,392.178 146.5,393.5C 145.5,393.5 144.5,393.5 143.5,393.5C 143.886,399.644 141.719,404.644 137,408.5C 136.444,406.405 135.944,406.238 135.5,408C 136.367,411.105 136.701,414.272 136.5,417.5C 129.833,417.5 123.167,417.5 116.5,417.5 Z"/></g>
<g><path style="opacity:1" fill="#486861" d="M 239.5,332.5 C 238.745,334.466 237.579,334.8 236,333.5C 235.502,330.183 235.335,326.85 235.5,323.5C 229.833,323.5 224.167,323.5 218.5,323.5C 218.5,354.833 218.5,386.167 218.5,417.5C 224.167,417.5 229.833,417.5 235.5,417.5C 235.17,397.993 235.503,378.659 236.5,359.5C 236.5,379.167 236.5,398.833 236.5,418.5C 230.167,418.5 223.833,418.5 217.5,418.5C 217.5,386.5 217.5,354.5 217.5,322.5C 223.833,322.5 230.167,322.5 236.5,322.5C 236.5,325.833 236.5,329.167 236.5,332.5C 237.5,332.5 238.5,332.5 239.5,332.5 Z"/></g>
<g><path style="opacity:1" fill="#054232" d="M 220.5,325.5 C 224.833,325.5 229.167,325.5 233.5,325.5C 233.876,328.627 233.876,331.627 233.5,334.5C 230.242,335.417 226.909,335.751 223.5,335.5C 223.5,340.5 223.5,345.5 223.5,350.5C 226.898,350.18 230.232,350.513 233.5,351.5C 234.593,355.108 234.76,358.775 234,362.5C 233.779,359.057 232.779,358.724 231,361.5C 229.684,358.312 229.184,354.978 229.5,351.5C 228.5,351.5 227.5,351.5 226.5,351.5C 226.831,354.825 227.164,358.159 227.5,361.5C 226.632,379.159 225.965,396.825 225.5,414.5C 227.833,414.5 230.167,414.5 232.5,414.5C 232.334,409.156 232.501,403.823 233,398.5C 233.499,404.157 233.666,409.824 233.5,415.5C 229.182,415.697 225.015,415.697 221,415.5C 220.333,388.5 220.333,361.5 221,334.5C 221.333,361.167 221.667,387.833 222,414.5C 222.667,385.5 222.667,356.5 222,327.5C 221.667,329.5 221.333,331.5 221,333.5C 219.187,330.922 219.02,328.255 220.5,325.5 Z"/></g>
<g><path style="opacity:1" fill="#024031" d="M 454.5,409.5 C 453.5,409.167 452.833,408.5 452.5,407.5C 453.517,403.211 451.85,400.878 447.5,400.5C 447.808,399.692 448.308,399.025 449,398.5C 453.014,400.502 455.514,399.335 456.5,395C 455.391,393.187 456.058,392.354 458.5,392.5C 458.324,396.192 459.991,398.192 463.5,398.5C 463.281,399.675 463.614,400.675 464.5,401.5C 471.658,405.165 479.158,406.165 487,404.5C 488.365,404.844 489.532,405.511 490.5,406.5C 491.386,405.675 491.719,404.675 491.5,403.5C 493.527,403.662 495.527,403.495 497.5,403C 499.409,399.087 502.076,395.754 505.5,393C 515.713,389.91 518.046,392.744 512.5,401.5C 507.488,405.374 502.155,408.541 496.5,411C 495.663,412.011 495.33,413.178 495.5,414.5C 490.704,414.68 486.037,415.347 481.5,416.5C 475.954,415.106 470.288,414.439 464.5,414.5C 464.477,412.073 463.977,409.74 463,407.5C 461.187,406.391 460.354,407.058 460.5,409.5C 458.5,409.5 456.5,409.5 454.5,409.5 Z"/></g>
<g><path style="opacity:1" fill="#c7dddc" d="M 495.5,398.5 C 486.676,403.43 477.676,403.763 468.5,399.5C 472.143,399.975 475.81,400.308 479.5,400.5C 484.708,399.348 490.041,398.681 495.5,398.5 Z"/></g>
<g><path style="opacity:1" fill="#4c6867" d="M 367.5,399.5 C 366.909,400.151 366.243,400.818 365.5,401.5C 360.682,402.812 356.015,402.812 351.5,401.5C 356.97,401.754 362.304,401.087 367.5,399.5 Z"/></g>
<g><path style="opacity:1" fill="#8ba4a0" d="M 639.5,399.5 C 638.653,400.966 637.32,401.8 635.5,402C 630.316,402.816 625.316,402.65 620.5,401.5C 626.986,401.919 633.319,401.252 639.5,399.5 Z"/></g>
<g><path style="opacity:1" fill="#d2dfdd" d="M 109.5,398.5 C 110.833,401.459 112.167,404.459 113.5,407.5C 114.664,410.759 115.664,414.093 116.5,417.5C 115.356,415.9 114.189,414.233 113,412.5C 112.667,413.5 112.333,414.5 112,415.5C 110.838,409.878 110.005,404.211 109.5,398.5 Z"/></g>
<g><path style="opacity:1" fill="#62827b" d="M 449.5,406.5 C 450.609,406.557 451.609,406.89 452.5,407.5C 452.833,408.5 453.5,409.167 454.5,409.5C 454.833,410.167 455.167,410.833 455.5,411.5C 452.911,410.581 450.911,408.914 449.5,406.5 Z"/></g>
<g><path style="opacity:1" fill="#a4bbb5" d="M 320.5,401.5 C 323.479,403.812 326.146,406.479 328.5,409.5C 331.349,410.1 333.682,411.433 335.5,413.5C 331.898,413.308 328.898,411.974 326.5,409.5C 324.091,407.098 322.091,404.431 320.5,401.5 Z"/></g>
<g><path style="opacity:1" fill="#c2d6d2" d="M 665.5,398.5 C 665.091,401.811 663.924,404.811 662,407.5C 661.259,408.641 660.425,408.641 659.5,407.5C 657.79,410.633 655.123,412.3 651.5,412.5C 656.833,408.5 661.5,403.833 665.5,398.5 Z"/></g>
<g><path style="opacity:1" fill="#d2e3df" d="M 455.5,412.5 C 459.325,413.441 462.991,414.774 466.5,416.5C 468.167,417.167 469.833,417.833 471.5,418.5C 468.428,418.817 465.428,418.484 462.5,417.5C 460.941,415.869 458.941,415.036 456.5,415C 455.748,414.329 455.414,413.496 455.5,412.5 Z"/></g>
<g><path style="opacity:1" fill="#c4dbd5" d="M 651.5,412.5 C 651.152,415.019 649.819,416.853 647.5,418C 638.363,419.565 629.363,419.732 620.5,418.5C 625.363,418.819 630.03,418.486 634.5,417.5C 640.307,416.37 645.974,414.704 651.5,412.5 Z"/></g>
<g><path style="opacity:1" fill="#e8f4f2" d="M 279.5,325.5 C 283.49,325.999 287.49,326.499 291.5,327C 293.125,327.853 293.458,328.853 292.5,330C 293.227,331.399 293.727,332.899 294,334.5C 295.667,335.167 297.333,335.833 299,336.5C 299.804,339.44 301.137,342.107 303,344.5C 303.494,346.134 303.66,347.801 303.5,349.5C 309.386,349.608 313.386,346.941 315.5,341.5C 316.325,340.614 317.325,340.281 318.5,340.5C 317.848,336.44 319.515,334.44 323.5,334.5C 320.678,337.899 318.344,341.565 316.5,345.5C 312.925,352.855 310.925,360.689 310.5,369C 310.379,381.044 313.712,391.878 320.5,401.5C 322.091,404.431 324.091,407.098 326.5,409.5C 325.504,409.414 324.671,409.748 324,410.5C 323,408.833 321.667,407.5 320,406.5C 320.054,401.866 317.887,399.533 313.5,399.5C 309.41,384.422 308.41,369.089 310.5,353.5C 310.392,352.558 310.059,351.725 309.5,351C 307.527,350.505 305.527,350.338 303.5,350.5C 303.338,354.713 304.005,358.713 305.5,362.5C 303.903,382.204 303.237,401.871 303.5,421.5C 300.152,422.164 296.652,422.164 293,421.5C 285.878,424.675 280.378,422.842 276.5,416C 277.448,415.517 278.448,415.351 279.5,415.5C 280.405,398.671 280.738,382.005 280.5,365.5C 278.759,360.581 276.759,355.748 274.5,351C 274.833,350.667 275.167,350.333 275.5,350C 272.497,344.069 267.664,341.902 261,343.5C 255.775,343.017 250.942,344.017 246.5,346.5C 244.841,347.817 243.674,349.483 243,351.5C 242.667,350.5 242.333,349.5 242,348.5C 241.583,349.756 240.75,350.423 239.5,350.5C 241.562,346.105 244.896,343.105 249.5,341.5C 251.117,340.962 252.784,340.629 254.5,340.5C 260.323,340.123 265.989,340.79 271.5,342.5C 275.865,344.535 278.865,347.869 280.5,352.5C 281.124,374.647 281.791,396.647 282.5,418.5C 288.833,418.5 295.167,418.5 301.5,418.5C 301.831,395.661 301.497,372.994 300.5,350.5C 297.461,338.797 290.461,330.464 279.5,325.5 Z"/></g>
<g><path style="opacity:1" fill="#4b6a66" d="M 300.5,350.5 C 301.497,372.994 301.831,395.661 301.5,418.5C 295.167,418.5 288.833,418.5 282.5,418.5C 282.5,398.5 282.5,378.5 282.5,358.5C 283.497,377.993 283.83,397.66 283.5,417.5C 284.833,417.5 286.167,417.5 287.5,417.5C 291.833,417.5 296.167,417.5 300.5,417.5C 300.5,416.5 300.5,415.5 300.5,414.5C 300.5,393.167 300.5,371.833 300.5,350.5 Z"/></g>
<g><path style="opacity:1" fill="#c9dfde" d="M 280.5,352.5 C 281.738,354.214 282.405,356.214 282.5,358.5C 282.5,378.5 282.5,398.5 282.5,418.5C 281.791,396.647 281.124,374.647 280.5,352.5 Z"/></g>
<g><path style="opacity:1" fill="#92a5a3" d="M 511.5,407.5 C 507.632,413.021 502.298,416.021 495.5,416.5C 501.3,414.375 506.634,411.375 511.5,407.5 Z"/></g>
<g><path style="opacity:1" fill="#84a298" d="M 341.5,415.5 C 348.378,417.159 355.378,417.825 362.5,417.5C 356.309,418.726 349.976,418.726 343.5,417.5C 342.833,416.833 342.167,416.167 341.5,415.5 Z"/></g>
<g><path style="opacity:1" fill="#5c7f72" d="M 466.5,416.5 C 476.175,417.709 485.841,417.709 495.5,416.5C 494.737,417.268 493.737,417.768 492.5,418C 485.508,418.5 478.508,418.666 471.5,418.5C 469.833,417.833 468.167,417.167 466.5,416.5 Z"/></g>
<g><path style="opacity:1" fill="#5d7f73" d="M 613.5,416.5 C 620.465,417.341 627.465,417.674 634.5,417.5C 630.03,418.486 625.363,418.819 620.5,418.5C 617.772,418.829 615.438,418.163 613.5,416.5 Z"/></g>
<g><path style="opacity:1" fill="#abc4bd" d="M 143.5,409.5 C 143.184,412.946 142.184,416.113 140.5,419C 132.323,419.823 124.323,419.656 116.5,418.5C 124.174,418.666 131.841,418.5 139.5,418C 140.469,414.868 141.802,412.034 143.5,409.5 Z"/></g>
<g><path style="opacity:1" fill="#d6e9e4" d="M 387.5,405.5 C 387.229,407.312 386.562,408.978 385.5,410.5C 381.889,412.223 378.722,414.556 376,417.5C 373.427,416.017 371.26,416.517 369.5,419C 361.167,419.667 352.833,419.667 344.5,419C 343.944,418.617 343.611,418.117 343.5,417.5C 349.976,418.726 356.309,418.726 362.5,417.5C 372.069,416.028 380.403,412.028 387.5,405.5 Z"/></g>
<g><path style="opacity:1" fill="#acc3bb" d="M 406.5,417.5 C 406.833,417.5 407.167,417.5 407.5,417.5C 413.31,418.49 419.31,418.823 425.5,418.5C 422.518,419.165 419.352,419.498 416,419.5C 412.424,419.485 409.258,418.818 406.5,417.5 Z"/></g>
</svg>
